<?xml version="1.0" encoding="UTF-8"?>
<svg xmlns="http://www.w3.org/2000/svg" viewBox="0 0 1000 1000">
  <style>
    .dark { display: none; }
    @media (prefers-color-scheme: dark) {
      .light { display: none; }
      .dark { display: inline; }
    }
  </style>
  <g class="light">
    <g transform="matrix(1 0 0 -1 0 1000)">
    <path d="M0 0C0 -64.371 -48.041 -125.009 -131.023 -207.991C-214.005 -290.973 -274.643 -339.014 -339.014 -339.014C-403.385 -339.014 -464.023 -290.973 -547.005 -207.991C-629.987 -125.009 -678.028 -64.371 -678.028 0C-678.028 64.371 -629.987 125.009 -547.005 207.991C-464.023 290.973 -403.385 339.014 -339.014 339.014C-274.643 339.014 -214.005 290.973 -131.023 207.991C-48.041 125.009 0 64.371 0 0" fill="#dcebff" transform="matrix(1 0 0 1 839.0142 500)"/>
    <path d="M0 0C-72.412 -72.404 -126.919 -117.282 -174.829 -117.282C-222.739 -117.282 -277.246 -72.404 -349.658 0C-422.062 72.412 -466.939 126.919 -466.939 174.829C-466.939 222.739 -422.062 277.246 -349.658 349.658C-277.246 422.062 -222.739 466.939 -174.829 466.939C-126.919 466.939 -72.412 422.062 0 349.658C72.404 277.246 117.281 222.739 117.281 174.829C117.281 126.919 72.404 72.412 0 0M33.162 382.82C-49.82 465.802 -110.458 513.843 -174.829 513.843C-239.199 513.843 -299.838 465.802 -382.82 382.82C-465.802 299.838 -513.843 239.199 -513.843 174.829C-513.843 110.458 -465.802 49.82 -382.82 -33.162C-299.838 -116.144 -239.199 -164.185 -174.829 -164.185C-110.458 -164.185 -49.82 -116.144 33.162 -33.162C116.144 49.82 164.185 110.458 164.185 174.829C164.185 239.199 116.144 299.838 33.162 382.82" fill="#164e8b" fill-opacity="0.4" transform="matrix(1 0 0 1 674.8288 325.1712)"/>
    <path d="M0 0C-80.457 -80.449 -141.021 -130.313 -194.254 -130.313C-247.487 -130.313 -308.051 -80.449 -388.508 0C-468.958 80.457 -518.821 141.021 -518.821 194.254C-518.821 247.487 -468.958 308.051 -388.508 388.508C-308.051 468.958 -247.487 518.821 -194.254 518.821C-141.021 518.821 -80.457 468.958 0 388.508C80.449 308.051 130.313 247.487 130.313 194.254C130.313 141.021 80.449 80.457 0 0M36.847 425.355C-55.355 517.558 -122.731 570.937 -194.254 570.937C-265.777 570.937 -333.153 517.558 -425.355 425.355C-517.558 333.153 -570.937 265.777 -570.937 194.254C-570.937 122.731 -517.558 55.355 -425.355 -36.847C-333.153 -129.049 -265.777 -182.428 -194.254 -182.428C-122.731 -182.428 -55.355 -129.049 36.847 -36.847C129.049 55.355 182.428 122.731 182.428 194.254C182.428 265.777 129.049 333.153 36.847 425.355" fill="#164e8b" fill-opacity="0.6" transform="matrix(1 0 0 1 694.2542 305.7458)"/>
    <path d="M0 0C-89.397 -89.388 -156.69 -144.792 -215.838 -144.792C-274.986 -144.792 -342.279 -89.388 -431.676 0C-521.064 89.397 -576.468 156.69 -576.468 215.838C-576.468 274.986 -521.064 342.279 -431.676 431.676C-342.279 521.064 -274.986 576.468 -215.838 576.468C-156.69 576.468 -89.397 521.064 0 431.676C89.388 342.279 144.792 274.986 144.792 215.838C144.792 156.69 89.388 89.397 0 0M40.941 472.617C-61.506 575.064 -136.368 634.374 -215.838 634.374C-295.308 634.374 -370.17 575.064 -472.617 472.617C-575.064 370.17 -634.374 295.308 -634.374 215.838C-634.374 136.368 -575.064 61.506 -472.617 -40.941C-370.17 -143.388 -295.308 -202.698 -215.838 -202.698C-136.368 -202.698 -61.506 -143.388 40.941 -40.941C143.388 61.506 202.698 136.368 202.698 215.838C202.698 295.308 143.388 370.17 40.941 472.617" fill="#164e8b" fill-opacity="0.8" transform="matrix(1 0 0 1 715.838 284.162)"/>
    <path d="M0 0C-99.33 -99.32 -174.1 -160.88 -239.82 -160.88C-305.54 -160.88 -380.31 -99.32 -479.64 0C-578.96 99.33 -640.52 174.1 -640.52 239.82C-640.52 305.54 -578.96 380.31 -479.64 479.64C-380.31 578.96 -305.54 640.52 -239.82 640.52C-174.1 640.52 -99.33 578.96 0 479.64C99.32 380.31 160.88 305.54 160.88 239.82C160.88 174.1 99.32 99.33 0 0M45.49 525.13C-68.34 638.96 -151.52 704.86 -239.82 704.86C-328.12 704.86 -411.3 638.96 -525.13 525.13C-638.96 411.3 -704.86 328.12 -704.86 239.82C-704.86 151.52 -638.96 68.34 -525.13 -45.49C-411.3 -159.32 -328.12 -225.22 -239.82 -225.22C-151.52 -225.22 -68.34 -159.32 45.49 -45.49C159.32 68.34 225.22 151.52 225.22 239.82C225.22 328.12 159.32 411.3 45.49 525.13" fill="#164e8b" transform="matrix(1 0 0 1 739.82 260.18)"/>
    </g>
  </g>
  <g class="dark">
    <g transform="matrix(1 0 0 -1 0 1000)">
    <path d="M0 0C0 -88.3 -65.9 -171.48 -179.73 -285.31C-293.56 -399.14 -376.74 -465.04 -465.04 -465.04C-553.34 -465.04 -636.52 -399.14 -750.35 -285.31C-864.18 -171.48 -930.08 -88.3 -930.08 0C-930.08 88.3 -864.18 171.48 -750.35 285.31C-636.52 399.14 -553.34 465.04 -465.04 465.04C-376.74 465.04 -293.56 399.14 -179.73 285.31C-65.9 171.48 0 88.3 0 0" fill="#164e8b" transform="matrix(1 0 0 1 965.04 500)"/>
    <path d="M0 0C-72.412 -72.404 -126.919 -117.282 -174.829 -117.282C-222.739 -117.282 -277.246 -72.404 -349.658 0C-422.062 72.412 -466.939 126.919 -466.939 174.829C-466.939 222.739 -422.062 277.246 -349.658 349.658C-277.246 422.062 -222.739 466.939 -174.829 466.939C-126.919 466.939 -72.412 422.062 0 349.658C72.404 277.246 117.281 222.739 117.281 174.829C117.281 126.919 72.404 72.412 0 0M33.162 382.82C-49.82 465.802 -110.458 513.843 -174.829 513.843C-239.199 513.843 -299.838 465.802 -382.82 382.82C-465.802 299.838 -513.843 239.199 -513.843 174.829C-513.843 110.458 -465.802 49.82 -382.82 -33.162C-299.838 -116.144 -239.199 -164.185 -174.829 -164.185C-110.458 -164.185 -49.82 -116.144 33.162 -33.162C116.144 49.82 164.185 110.458 164.185 174.829C164.185 239.199 116.144 299.838 33.162 382.82" fill="#dcebff" fill-opacity="0.4" transform="matrix(1 0 0 1 674.8288 325.1712)"/>
    <path d="M0 0C-80.457 -80.449 -141.021 -130.313 -194.254 -130.313C-247.487 -130.313 -308.051 -80.449 -388.508 0C-468.958 80.457 -518.821 141.021 -518.821 194.254C-518.821 247.487 -468.958 308.051 -388.508 388.508C-308.051 468.958 -247.487 518.821 -194.254 518.821C-141.021 518.821 -80.457 468.958 0 388.508C80.449 308.051 130.313 247.487 130.313 194.254C130.313 141.021 80.449 80.457 0 0M36.847 425.355C-55.355 517.558 -122.731 570.937 -194.254 570.937C-265.777 570.937 -333.153 517.558 -425.355 425.355C-517.558 333.153 -570.937 265.777 -570.937 194.254C-570.937 122.731 -517.558 55.355 -425.355 -36.847C-333.153 -129.049 -265.777 -182.428 -194.254 -182.428C-122.731 -182.428 -55.355 -129.049 36.847 -36.847C129.049 55.355 182.428 122.731 182.428 194.254C182.428 265.777 129.049 333.153 36.847 425.355" fill="#dcebff" fill-opacity="0.6" transform="matrix(1 0 0 1 694.2542 305.7458)"/>
    <path d="M0 0C-89.397 -89.388 -156.69 -144.792 -215.838 -144.792C-274.986 -144.792 -342.279 -89.388 -431.676 0C-521.064 89.397 -576.468 156.69 -576.468 215.838C-576.468 274.986 -521.064 342.279 -431.676 431.676C-342.279 521.064 -274.986 576.468 -215.838 576.468C-156.69 576.468 -89.397 521.064 0 431.676C89.388 342.279 144.792 274.986 144.792 215.838C144.792 156.69 89.388 89.397 0 0M40.941 472.617C-61.506 575.064 -136.368 634.374 -215.838 634.374C-295.308 634.374 -370.17 575.064 -472.617 472.617C-575.064 370.17 -634.374 295.308 -634.374 215.838C-634.374 136.368 -575.064 61.506 -472.617 -40.941C-370.17 -143.388 -295.308 -202.698 -215.838 -202.698C-136.368 -202.698 -61.506 -143.388 40.941 -40.941C143.388 61.506 202.698 136.368 202.698 215.838C202.698 295.308 143.388 370.17 40.941 472.617" fill="#dcebff" fill-opacity="0.8" transform="matrix(1 0 0 1 715.838 284.162)"/>
    <path d="M0 0C-99.33 -99.32 -174.1 -160.88 -239.82 -160.88C-305.54 -160.88 -380.31 -99.32 -479.64 0C-578.96 99.33 -640.52 174.1 -640.52 239.82C-640.52 305.54 -578.96 380.31 -479.64 479.64C-380.31 578.96 -305.54 640.52 -239.82 640.52C-174.1 640.52 -99.33 578.96 0 479.64C99.32 380.31 160.88 305.54 160.88 239.82C160.88 174.1 99.32 99.33 0 0M45.49 525.13C-68.34 638.96 -151.52 704.86 -239.82 704.86C-328.12 704.86 -411.3 638.96 -525.13 525.13C-638.96 411.3 -704.86 328.12 -704.86 239.82C-704.86 151.52 -638.96 68.34 -525.13 -45.49C-411.3 -159.32 -328.12 -225.22 -239.82 -225.22C-151.52 -225.22 -68.34 -159.32 45.49 -45.49C159.32 68.34 225.22 151.52 225.22 239.82C225.22 328.12 159.32 411.3 45.49 525.13" fill="#dcebff" transform="matrix(1 0 0 1 739.82 260.18)"/>
    </g>
  </g>
</svg>
