<?xml version="1.0" encoding="UTF-8"?>
<svg xmlns="http://www.w3.org/2000/svg" width="1000" height="1000" viewBox="0 0 1000 1000">
  <g transform="matrix(1 0 0 -1 0 1000)">
  <rect x="0" y="0" width="1000" height="1000" fill="#1a1a1a"/>
  <path d="M0 0C73.17 0 102.981 62.958 102.981 126.562C102.981 190.169 73.17 253.126 0 253.126C-73.845 253.126 -102.978 190.818 -102.978 126.562C-102.978 62.308 -73.845 0 0 0M96.206 -126.816L96.206 -42.137C96.206 -29.032 81.112 -21.261 70.752 -29.288C50.24 -45.181 22.737 -53.223 -10.162 -53.223C-117.883 -53.223 -165.308 32.453 -165.308 126.562C-165.308 220.673 -117.883 306.346 -10.162 306.346C25.018 306.346 53.727 296.901 74.719 279.405C85.01 270.828 100.612 277.545 101.083 290.933L101.083 290.933C101.385 299.532 108.443 306.346 117.047 306.346L138.495 306.346C147.317 306.346 154.468 299.194 154.468 290.372L154.468 -126.816C154.468 -135.638 147.317 -142.79 138.495 -142.79L112.18 -142.79C103.358 -142.79 96.206 -135.638 96.206 -126.816" fill="#f2f2f2" transform="matrix(1 0 0 1 494.7894 404.6085)"/>
  <path d="M0 0C-140.471 0 -236.867 -9.337 -283.341 -55.809C-329.813 -102.283 -339.15 -198.68 -339.15 -339.15C-339.15 -479.619 -329.813 -576.019 -283.341 -622.489C-236.867 -668.963 -140.471 -678.299 0 -678.299C140.469 -678.299 236.865 -668.963 283.339 -622.489C329.813 -576.015 339.15 -479.619 339.15 -339.15C339.15 -198.68 329.813 -102.285 283.339 -55.811C236.865 -9.337 140.469 0 0 0M0 -742.638C-160.982 -742.638 -266.398 -730.424 -328.835 -667.987C-391.272 -605.545 -403.489 -500.131 -403.489 -339.15C-403.489 -178.168 -391.272 -72.754 -328.835 -10.315C-266.398 52.123 -160.982 64.339 0 64.339C160.982 64.339 266.396 52.123 328.833 -10.315C391.274 -72.754 403.489 -178.168 403.489 -339.15C403.489 -500.131 391.274 -605.545 328.833 -667.987C266.396 -730.424 160.982 -742.638 0 -742.638" fill="#f2f2f2" transform="matrix(1 0 0 1 500 839.1497)"/>
  </g>
</svg>
